<svg width="6" height="8" viewBox="0 0 6 8" fill="none" xmlns="http://www.w3.org/2000/svg">
<path d="M0.845171 7.2953C0.899092 7.32335 0.959634 7.33618 1.0203 7.33242C1.08096 7.32866 1.13946 7.30846 1.1895 7.27397L5.52284 4.27397C5.56712 4.24329 5.6033 4.20234 5.62829 4.15462C5.65329 4.1069 5.66634 4.05384 5.66634 3.99997C5.66634 3.9461 5.65329 3.89304 5.62829 3.84532C5.6033 3.7976 5.56712 3.75665 5.52284 3.72597L1.1895 0.725969C1.1395 0.691367 1.08097 0.671104 1.02028 0.667375C0.959577 0.663647 0.899015 0.676594 0.845147 0.704815C0.791279 0.733037 0.746158 0.775457 0.71467 0.827482C0.683181 0.879508 0.666524 0.939156 0.666504 0.999969V6.99997C0.666494 7.06081 0.683138 7.1205 0.714633 7.17256C0.746128 7.22462 0.791271 7.26707 0.845171 7.2953Z" fill="#E95258"/>
</svg>
