<svg width="34" height="34" viewBox="0 0 34 34" fill="none" xmlns="http://www.w3.org/2000/svg">
<circle cx="17" cy="17" r="17" fill="#E95258"/>
<path d="M13.5508 14.2905C13.4333 14.4069 13.2746 14.4721 13.1092 14.4721C12.9438 14.4721 12.7851 14.4069 12.6676 14.2905C12.6096 14.2333 12.5635 14.1652 12.532 14.0901C12.5006 14.015 12.4844 13.9344 12.4844 13.8529C12.4844 13.7715 12.5006 13.6909 12.532 13.6157C12.5635 13.5406 12.6096 13.4725 12.6676 13.4154L16.197 9.95639C16.3148 9.84018 16.4736 9.77502 16.6391 9.77502C16.8045 9.77502 16.9634 9.84018 17.0812 9.95639L20.6106 13.4154C20.6686 13.4725 20.7147 13.5406 20.7461 13.6157C20.7776 13.6909 20.7938 13.7715 20.7938 13.8529C20.7938 13.9344 20.7776 14.015 20.7461 14.0901C20.7147 14.1652 20.6686 14.2333 20.6106 14.2905C20.4928 14.4067 20.334 14.4718 20.1685 14.4718C20.003 14.4718 19.8442 14.4067 19.7264 14.2905L16.6377 11.4538L13.5508 14.2905Z" fill="#F9F9F9"/>
<path d="M13.5508 18.8061C13.4333 18.9225 13.2746 18.9878 13.1092 18.9878C12.9438 18.9878 12.7851 18.9225 12.6676 18.8061C12.6096 18.749 12.5635 18.6808 12.532 18.6057C12.5006 18.5306 12.4844 18.45 12.4844 18.3685C12.4844 18.2871 12.5006 18.2065 12.532 18.1314C12.5635 18.0562 12.6096 17.9881 12.6676 17.931L16.197 14.472C16.3148 14.3558 16.4736 14.2906 16.6391 14.2906C16.8045 14.2906 16.9634 14.3558 17.0812 14.472L20.6106 17.931C20.6686 17.9881 20.7147 18.0562 20.7461 18.1314C20.7776 18.2065 20.7938 18.2871 20.7938 18.3685C20.7938 18.45 20.7776 18.5306 20.7461 18.6057C20.7147 18.6808 20.6686 18.749 20.6106 18.8061C20.4928 18.9223 20.334 18.9875 20.1685 18.9875C20.003 18.9875 19.8442 18.9223 19.7264 18.8061L16.6377 15.9694L13.5508 18.8061Z" fill="#F9F9F9"/>
<path d="M13.5508 23.3217C13.4333 23.4381 13.2746 23.5034 13.1092 23.5034C12.9438 23.5034 12.7851 23.4381 12.6676 23.3217C12.6096 23.2646 12.5635 23.1965 12.532 23.1214C12.5006 23.0462 12.4844 22.9656 12.4844 22.8842C12.4844 22.8027 12.5006 22.7221 12.532 22.647C12.5635 22.5719 12.6096 22.5037 12.6676 22.4466L16.197 18.9876C16.3148 18.8714 16.4736 18.8063 16.6391 18.8063C16.8045 18.8063 16.9634 18.8714 17.0812 18.9876L20.6106 22.4466C20.6686 22.5037 20.7147 22.5719 20.7461 22.647C20.7776 22.7221 20.7938 22.8027 20.7938 22.8842C20.7938 22.9656 20.7776 23.0462 20.7461 23.1214C20.7147 23.1965 20.6686 23.2646 20.6106 23.3217C20.4928 23.4379 20.334 23.5031 20.1685 23.5031C20.003 23.5031 19.8442 23.4379 19.7264 23.3217L16.6377 20.485L13.5508 23.3217Z" fill="#F9F9F9"/>
</svg>
