<svg width="60" height="60" viewBox="0 0 60 60" fill="none" xmlns="http://www.w3.org/2000/svg">
<circle cx="30" cy="30" r="30" fill="#F2C94C"/>
<path d="M29.9999 17.9999C29.6905 17.9999 29.3938 18.1228 29.175 18.3416C28.9562 18.5604 28.8333 18.8572 28.8333 19.1666V21.4999C28.8333 21.8093 28.9562 22.1061 29.175 22.3249C29.3938 22.5437 29.6905 22.6666 29.9999 22.6666C30.3093 22.6666 30.6061 22.5437 30.8249 22.3249C31.0437 22.1061 31.1666 21.8093 31.1666 21.4999V19.1666C31.1666 18.8572 31.0437 18.5604 30.8249 18.3416C30.6061 18.1228 30.3093 17.9999 29.9999 17.9999ZM29.9999 13.3333C27.834 13.3333 25.7568 14.1937 24.2252 15.7252C22.6937 17.2568 21.8333 19.334 21.8333 21.4999V28.4999C21.8333 30.6659 22.6937 32.7431 24.2252 34.2746C25.7568 35.8062 27.834 36.6666 29.9999 36.6666C32.1659 36.6666 34.2431 35.8062 35.7746 34.2746C37.3062 32.7431 38.1666 30.6659 38.1666 28.4999V21.4999C38.1666 19.334 37.3062 17.2568 35.7746 15.7252C34.2431 14.1937 32.1659 13.3333 29.9999 13.3333ZM35.8333 28.4999C35.8333 30.047 35.2187 31.5307 34.1247 32.6247C33.0307 33.7187 31.547 34.3333 29.9999 34.3333C28.4528 34.3333 26.9691 33.7187 25.8751 32.6247C24.7812 31.5307 24.1666 30.047 24.1666 28.4999V21.4999C24.1666 19.9528 24.7812 18.4691 25.8751 17.3751C26.9691 16.2812 28.4528 15.6666 29.9999 15.6666C31.547 15.6666 33.0307 16.2812 34.1247 17.3751C35.2187 18.4691 35.8333 19.9528 35.8333 21.4999V28.4999Z" fill="#32495E"/>
<path d="M30 49L27.4019 44.5L32.5981 44.5L30 49Z" fill="#32495E"/>
</svg>
